<svg xmlns="http://www.w3.org/2000/svg" viewBox="0 0 496.61 120" fill="none" role="img" aria-label="PaalStack logo">
  <g transform="translate(24,24) scale(0.36) translate(-66,-54)"><path d="M 86.56 141.06 L 161.44 174.94 Q 166 177 170.56 174.94 L 245.44 141.06 Q 250 139 250 144 L 250 158 Q 250 163 245.44 165.06 L 170.56 198.94 Q 166 201 161.44 198.94 L 86.56 165.06 Q 82 163 82 158 L 82 144 Q 82 139 86.56 141.06 Z" fill="#FFFFFF"/><path d="M 86.56 179.06 L 161.44 212.94 Q 166 215 170.56 212.94 L 245.44 179.06 Q 250 177 250 182 L 250 196 Q 250 201 245.44 203.06 L 170.56 236.94 Q 166 239 161.44 236.94 L 86.56 203.06 Q 82 201 82 196 L 82 182 Q 82 177 86.56 179.06 Z" fill="#FFFFFF"/><path d="M 86.56 104.94 L 161.44 71.06 Q 166 69 170.56 71.06 L 245.44 104.94 Q 250 107 250 112 L 250 126 Q 250 131 245.44 128.94 L 170.56 95.06 Q 166 93 161.44 95.06 L 86.56 128.94 Q 82 131 82 126 L 82 112 Q 82 107 86.56 104.94 Z" fill="#2563EB"/></g><path d="M136.75 80.37L130.51 80.37L130.51 39.63L145.11 39.63Q149.82 39.63 152.96 41.38Q156.11 43.13 157.66 46.11Q159.22 49.09 159.22 52.86Q159.22 56.64 157.65 59.63Q156.08 62.63 152.93 64.36Q149.79 66.10 145.06 66.10L136.75 66.10L136.75 80.37M136.75 44.96L136.75 60.82L144.46 60.82Q147.46 60.82 149.32 59.78Q151.18 58.74 152.04 56.94Q152.91 55.13 152.91 52.86Q152.91 50.57 152.04 48.78Q151.18 46.98 149.31 45.97Q147.44 44.96 144.40 44.96L136.75 44.96M170.08 80.37L163.32 80.37L177.82 39.63L185.47 39.63L200.24 80.37L193.48 80.37L189.74 69.63L173.71 69.63L170.08 80.37M175.49 64.43L187.91 64.43L185.55 57.70Q184.63 54.94 183.53 51.20Q182.66 48.30 181.62 44.52Q180.58 48.35 179.73 51.28Q178.61 55.08 177.76 57.70L175.49 64.43M209.78 80.37L203.03 80.37L217.52 39.63L225.18 39.63L239.94 80.37L233.19 80.37L229.44 69.63L213.42 69.63L209.78 80.37M215.20 64.43L227.61 64.43L225.26 57.70Q224.33 54.94 223.23 51.20Q222.36 48.30 221.32 44.52Q220.28 48.35 219.43 51.28Q218.31 55.08 217.46 57.70L215.20 64.43M270.54 80.37L245.85 80.37L245.85 39.63L252.08 39.63L252.08 75.01L270.54 75.01" fill="#FFFFFF"/><path d="M291.89 80.92Q286.81 80.92 283.04 79.39Q279.26 77.86 277.16 74.74Q275.05 71.62 274.97 66.92L284.24 66.92Q284.38 68.89 285.32 70.23Q286.26 71.57 287.92 72.24Q289.57 72.91 291.79 72.91Q293.78 72.91 295.23 72.36Q296.68 71.81 297.46 70.83Q298.24 69.84 298.24 68.53Q298.24 67.36 297.51 66.54Q296.79 65.71 295.34 65.09Q293.89 64.46 291.65 63.96L287.33 62.95Q282.05 61.75 279.04 59.02Q276.04 56.28 276.04 51.69Q276.04 47.91 278.09 45.07Q280.14 42.23 283.71 40.65Q287.27 39.08 291.89 39.08Q296.63 39.08 300.10 40.68Q303.57 42.28 305.48 45.14Q307.40 48 307.45 51.77L298.18 51.77Q297.99 49.55 296.38 48.32Q294.77 47.09 291.87 47.09Q289.95 47.09 288.64 47.60Q287.33 48.11 286.67 48.99Q286.02 49.88 286.02 51.03Q286.02 52.29 286.75 53.15Q287.49 54.01 288.86 54.59Q290.23 55.16 292.03 55.57L295.56 56.39Q298.51 57.02 300.82 58.10Q303.13 59.18 304.73 60.68Q306.33 62.19 307.17 64.16Q308 66.13 308 68.56Q308 72.41 306.07 75.19Q304.14 77.96 300.55 79.44Q296.95 80.92 291.89 80.92M324.11 47.50L311.77 47.50L311.77 39.63L346.06 39.63L346.06 47.50L333.73 47.50L333.73 80.37L324.11 80.37L324.11 47.50M359.87 80.37L349.15 80.37L362.74 39.63L375.68 39.63L389.68 80.37L378.85 80.37L376.09 71.70L362.52 71.70L359.87 80.37M364.79 64.32L373.73 64.32L373.19 62.57Q371.82 58.11 370.56 53.08Q369.82 50.27 369.11 47.29Q368.43 50.27 367.77 53.11Q366.63 58.14 365.34 62.57L364.79 64.32M412.48 80.92Q406.98 80.92 402.62 78.48Q398.26 76.05 395.73 71.38Q393.20 66.70 393.20 60.03Q393.20 53.30 395.76 48.63Q398.32 43.95 402.69 41.52Q407.07 39.08 412.48 39.08Q416.12 39.08 419.21 40.08Q422.30 41.08 424.68 42.99Q427.05 44.91 428.54 47.68Q430.04 50.46 430.47 54.01L420.71 54.01Q420.46 52.51 419.81 51.32Q419.15 50.13 418.13 49.28Q417.10 48.43 415.73 48Q414.37 47.56 412.73 47.56Q409.75 47.56 407.57 49.04Q405.40 50.51 404.24 53.29Q403.07 56.06 403.07 60.03Q403.07 64.10 404.26 66.88Q405.45 69.65 407.60 71.05Q409.75 72.44 412.67 72.44Q414.31 72.44 415.68 72Q417.05 71.57 418.09 70.72Q419.13 69.87 419.81 68.68Q420.49 67.49 420.74 65.99L430.50 65.99Q430.23 68.72 428.94 71.36Q427.66 74 425.37 76.17Q423.09 78.35 419.86 79.63Q416.64 80.92 412.48 80.92M445.43 80.37L435.78 80.37L435.78 39.63L445.43 39.63L445.43 49.64L445.27 59.48Q445.29 59.40 445.35 59.32Q446.50 57.32 447.93 55.30Q449.37 53.27 451.36 50.76L460.44 39.63L472.04 39.63L457.27 57.24L472.61 80.37L461.26 80.37L450.63 63.55L445.43 69.43" fill="#2563EB"/>
</svg>
