<svg xmlns="http://www.w3.org/2000/svg" viewBox="0 0 501.41 122.74" fill="none" role="img" aria-label="PaalStack logo with tagline">
  <g transform="translate(24,19.97) scale(0.384) translate(-66,-54)"><path d="M 86.56 141.06 L 161.44 174.94 Q 166 177 170.56 174.94 L 245.44 141.06 Q 250 139 250 144 L 250 158 Q 250 163 245.44 165.06 L 170.56 198.94 Q 166 201 161.44 198.94 L 86.56 165.06 Q 82 163 82 158 L 82 144 Q 82 139 86.56 141.06 Z" fill="#111111"/><path d="M 86.56 179.06 L 161.44 212.94 Q 166 215 170.56 212.94 L 245.44 179.06 Q 250 177 250 182 L 250 196 Q 250 201 245.44 203.06 L 170.56 236.94 Q 166 239 161.44 236.94 L 86.56 203.06 Q 82 201 82 196 L 82 182 Q 82 177 86.56 179.06 Z" fill="#111111"/><path d="M 86.56 104.94 L 161.44 71.06 Q 166 69 170.56 71.06 L 245.44 104.94 Q 250 107 250 112 L 250 126 Q 250 131 245.44 128.94 L 170.56 95.06 Q 166 93 161.44 95.06 L 86.56 128.94 Q 82 131 82 126 L 82 112 Q 82 107 86.56 104.94 Z" fill="#2563EB"/></g><path d="M141.55 64.74L135.31 64.74L135.31 24L149.91 24Q154.62 24 157.76 25.75Q160.91 27.50 162.46 30.48Q164.02 33.46 164.02 37.23Q164.02 41.01 162.45 44Q160.88 47 157.73 48.73Q154.59 50.47 149.86 50.47L141.55 50.47L141.55 64.74M141.55 29.33L141.55 45.19L149.26 45.19Q152.26 45.19 154.12 44.15Q155.98 43.11 156.84 41.31Q157.71 39.50 157.71 37.23Q157.71 34.94 156.84 33.15Q155.98 31.36 154.11 30.34Q152.24 29.33 149.20 29.33L141.55 29.33M174.88 64.74L168.12 64.74L182.62 24L190.27 24L205.04 64.74L198.28 64.74L194.54 54L178.51 54L174.88 64.74M180.29 48.80L192.71 48.80L190.35 42.07Q189.43 39.31 188.33 35.57Q187.46 32.67 186.42 28.89Q185.38 32.72 184.53 35.65Q183.41 39.45 182.56 42.07L180.29 48.80M214.58 64.74L207.83 64.74L222.32 24L229.98 24L244.74 64.74L237.99 64.74L234.24 54L218.22 54L214.58 64.74M220 48.80L232.41 48.80L230.06 42.07Q229.13 39.31 228.03 35.57Q227.16 32.67 226.12 28.89Q225.08 32.72 224.23 35.65Q223.11 39.45 222.26 42.07L220 48.80M275.34 64.74L250.65 64.74L250.65 24L256.88 24L256.88 59.38L275.34 59.38" fill="#111111"/><path d="M296.69 65.29Q291.61 65.29 287.84 63.76Q284.06 62.23 281.96 59.11Q279.85 55.99 279.77 51.29L289.04 51.29Q289.18 53.26 290.12 54.60Q291.06 55.94 292.72 56.61Q294.37 57.28 296.59 57.28Q298.58 57.28 300.03 56.73Q301.48 56.18 302.26 55.20Q303.04 54.21 303.04 52.90Q303.04 51.73 302.31 50.91Q301.59 50.09 300.14 49.46Q298.69 48.83 296.45 48.34L292.13 47.32Q286.85 46.12 283.84 43.39Q280.84 40.65 280.84 36.06Q280.84 32.29 282.89 29.44Q284.94 26.60 288.51 25.03Q292.07 23.45 296.69 23.45Q301.43 23.45 304.90 25.05Q308.37 26.65 310.28 29.51Q312.20 32.37 312.25 36.14L302.98 36.14Q302.79 33.93 301.18 32.70Q299.57 31.46 296.67 31.46Q294.75 31.46 293.44 31.97Q292.13 32.48 291.47 33.37Q290.82 34.25 290.82 35.40Q290.82 36.66 291.55 37.52Q292.29 38.38 293.66 38.96Q295.03 39.53 296.83 39.94L300.36 40.76Q303.31 41.39 305.62 42.47Q307.93 43.55 309.53 45.05Q311.13 46.56 311.97 48.53Q312.80 50.50 312.80 52.93Q312.80 56.79 310.87 59.56Q308.94 62.34 305.35 63.81Q301.75 65.29 296.69 65.29M328.91 31.88L316.57 31.88L316.57 24L350.86 24L350.86 31.88L338.53 31.88L338.53 64.74L328.91 64.74L328.91 31.88M364.67 64.74L353.95 64.74L367.54 24L380.48 24L394.48 64.74L383.65 64.74L380.89 56.07L367.32 56.07L364.67 64.74M369.59 48.69L378.53 48.69L377.99 46.94Q376.62 42.48 375.36 37.45Q374.62 34.64 373.91 31.66Q373.23 34.64 372.57 37.48Q371.43 42.51 370.14 46.94L369.59 48.69M417.28 65.29Q411.78 65.29 407.42 62.86Q403.06 60.42 400.53 55.75Q398 51.07 398 44.40Q398 37.67 400.56 33Q403.12 28.32 407.49 25.89Q411.87 23.45 417.28 23.45Q420.92 23.45 424.01 24.45Q427.10 25.45 429.48 27.36Q431.85 29.28 433.34 32.05Q434.84 34.83 435.27 38.38L425.51 38.38Q425.26 36.88 424.61 35.69Q423.95 34.50 422.93 33.65Q421.90 32.80 420.53 32.37Q419.17 31.93 417.53 31.93Q414.55 31.93 412.37 33.41Q410.20 34.88 409.04 37.66Q407.87 40.43 407.87 44.40Q407.87 48.47 409.06 51.25Q410.25 54.02 412.40 55.42Q414.55 56.81 417.47 56.81Q419.11 56.81 420.48 56.38Q421.85 55.94 422.89 55.09Q423.93 54.24 424.61 53.05Q425.29 51.86 425.54 50.36L435.30 50.36Q435.03 53.09 433.74 55.73Q432.46 58.37 430.17 60.54Q427.89 62.72 424.66 64Q421.44 65.29 417.28 65.29M450.23 64.74L440.58 64.74L440.58 24L450.23 24L450.23 34.01L450.07 43.85Q450.09 43.77 450.15 43.69Q451.30 41.69 452.73 39.67Q454.17 37.64 456.16 35.13L465.24 24L476.84 24L462.07 41.61L477.41 64.74L466.06 64.74L455.43 47.93L450.23 53.80" fill="#2563EB"/><path d="M137.29 92.74L132.25 92.74L132.25 79.65L137.08 79.65Q138.47 79.65 139.39 80.10Q140.30 80.56 140.75 81.34Q141.20 82.12 141.20 83.08Q141.20 83.90 140.90 84.46Q140.60 85.02 140.09 85.35Q139.59 85.69 138.98 85.85L138.98 85.98Q139.64 86.01 140.27 86.40Q140.89 86.79 141.30 87.50Q141.71 88.21 141.71 89.22Q141.71 90.21 141.24 91.01Q140.77 91.81 139.79 92.28Q138.82 92.74 137.29 92.74M134.25 86.86L134.25 91.02L137.08 91.02Q138.49 91.02 139.11 90.47Q139.72 89.93 139.72 89.12Q139.72 88.49 139.41 87.98Q139.10 87.47 138.53 87.17Q137.95 86.86 137.16 86.86L134.25 86.86M134.25 81.36L134.25 85.32L136.88 85.32Q137.54 85.32 138.08 85.06Q138.61 84.81 138.92 84.34Q139.23 83.87 139.23 83.25Q139.23 82.44 138.67 81.90Q138.10 81.36 136.93 81.36L134.25 81.36M147.27 92.87Q146.27 92.87 145.51 92.44Q144.76 92.02 144.34 91.20Q143.92 90.37 143.92 89.16L143.92 82.92L145.86 82.92L145.86 88.92Q145.86 89.98 146.41 90.58Q146.97 91.18 147.93 91.18Q148.59 91.18 149.10 90.89Q149.62 90.61 149.92 90.06Q150.22 89.51 150.22 88.73L150.22 82.92L152.15 82.92L152.15 92.74L150.30 92.74L150.29 90.83Q149.89 91.78 149.22 92.27Q148.40 92.87 147.27 92.87M156.68 92.74L154.75 92.74L154.75 82.92L156.68 82.92L156.68 92.74M155.73 81.41Q155.22 81.41 154.87 81.08Q154.51 80.75 154.51 80.27Q154.51 79.79 154.87 79.45Q155.22 79.12 155.73 79.12Q156.23 79.12 156.59 79.45Q156.95 79.79 156.95 80.27Q156.95 80.75 156.59 81.08Q156.23 81.41 155.73 81.41M159.29 79.65L161.22 79.65L161.22 92.74L159.29 92.74L159.29 79.65M167.48 92.94Q166.28 92.94 165.35 92.32Q164.42 91.71 163.89 90.58Q163.36 89.44 163.36 87.86Q163.36 86.26 163.90 85.12Q164.44 83.99 165.37 83.39Q166.30 82.79 167.48 82.79Q168.39 82.79 168.95 83.10Q169.51 83.40 169.82 83.80Q170.14 84.21 170.31 84.52L170.41 84.52L170.41 79.65L172.35 79.65L172.35 92.74L170.47 92.74L170.47 91.20L170.31 91.20Q170.14 91.52 169.81 91.92Q169.49 92.33 168.93 92.63Q168.36 92.94 167.48 92.94M167.90 91.29Q168.72 91.29 169.29 90.85Q169.86 90.41 170.15 89.64Q170.45 88.86 170.45 87.84Q170.45 86.81 170.16 86.05Q169.87 85.29 169.30 84.86Q168.73 84.44 167.90 84.44Q167.05 84.44 166.48 84.88Q165.91 85.33 165.63 86.10Q165.34 86.87 165.34 87.84Q165.34 88.81 165.63 89.60Q165.92 90.38 166.49 90.83Q167.06 91.29 167.90 91.29M176.38 92.87Q175.84 92.87 175.46 92.50Q175.08 92.12 175.08 91.58Q175.08 91.04 175.46 90.66Q175.84 90.29 176.38 90.29Q176.92 90.29 177.29 90.66Q177.67 91.04 177.67 91.58Q177.67 92.12 177.29 92.50Q176.92 92.87 176.38 92.87" fill="#111111"/><path d="M186.52 92.74L184.35 92.74L189.01 79.65L191.47 79.65L196.22 92.74L194.05 92.74L192.84 89.29L187.69 89.29L186.52 92.74M188.26 87.62L192.25 87.62L191.50 85.46Q191.20 84.57 190.85 83.36Q190.57 82.43 190.23 81.22Q189.90 82.45 189.63 83.39Q189.26 84.61 188.99 85.46L188.26 87.62M201.31 92.87Q200.31 92.87 199.56 92.44Q198.80 92.02 198.38 91.20Q197.97 90.37 197.97 89.16L197.97 82.92L199.90 82.92L199.90 88.92Q199.90 89.98 200.46 90.58Q201.02 91.18 201.97 91.18Q202.63 91.18 203.15 90.89Q203.66 90.61 203.96 90.06Q204.26 89.51 204.26 88.73L204.26 82.92L206.19 82.92L206.19 92.74L204.35 92.74L204.34 90.83Q203.93 91.78 203.27 92.27Q202.44 92.87 201.31 92.87M211.04 82.92L213 82.92L213 84.49L211.04 84.49L211.04 90.09Q211.04 90.68 211.29 90.95Q211.54 91.23 212.11 91.23Q212.26 91.23 212.50 91.20Q212.75 91.16 212.93 91.13L213.27 92.67Q212.96 92.78 212.61 92.83Q212.26 92.87 211.91 92.87Q210.58 92.87 209.84 92.18Q209.10 91.49 209.10 90.25L209.10 84.49L207.67 84.49L207.67 82.92L209.10 82.92L209.10 80.58L211.04 80.58L211.04 82.92M219.05 92.94Q217.67 92.94 216.64 92.31Q215.61 91.68 215.03 90.54Q214.46 89.39 214.46 87.88Q214.46 86.35 215.03 85.21Q215.61 84.06 216.64 83.43Q217.67 82.79 219.05 82.79Q220.44 82.79 221.47 83.43Q222.51 84.06 223.08 85.21Q223.65 86.35 223.65 87.88Q223.65 89.39 223.08 90.54Q222.51 91.68 221.47 92.31Q220.44 92.94 219.05 92.94M219.05 91.31Q219.95 91.31 220.53 90.84Q221.12 90.37 221.40 89.59Q221.69 88.81 221.69 87.88Q221.69 86.94 221.40 86.15Q221.12 85.37 220.53 84.90Q219.95 84.43 219.05 84.43Q218.16 84.43 217.58 84.90Q217 85.37 216.72 86.15Q216.43 86.93 216.43 87.88Q216.43 88.81 216.72 89.59Q217 90.37 217.58 90.84Q218.16 91.31 219.05 91.31M227.73 92.74L225.79 92.74L225.79 82.92L227.63 82.92L227.67 84.74Q227.87 84.21 228.18 83.82Q228.62 83.29 229.21 83.02Q229.80 82.75 230.44 82.75Q231.51 82.75 232.17 83.41Q232.70 83.94 232.96 84.81Q233.15 84.29 233.48 83.89Q233.96 83.33 234.63 83.04Q235.30 82.75 236.07 82.75Q236.94 82.75 237.64 83.13Q238.35 83.50 238.76 84.25Q239.18 85 239.18 86.12L239.18 92.74L237.24 92.74L237.24 86.31Q237.24 85.32 236.70 84.88Q236.15 84.45 235.40 84.45Q234.79 84.45 234.35 84.70Q233.91 84.96 233.68 85.41Q233.44 85.86 233.44 86.45L233.44 92.74L231.53 92.74L231.53 86.19Q231.53 85.39 231.03 84.92Q230.52 84.45 229.74 84.45Q229.20 84.45 228.74 84.70Q228.28 84.95 228 85.43Q227.73 85.92 227.73 86.63L227.73 92.74M244.53 92.96Q243.60 92.96 242.84 92.61Q242.09 92.27 241.65 91.60Q241.21 90.93 241.21 89.96Q241.21 89.13 241.53 88.59Q241.85 88.06 242.40 87.74Q242.95 87.42 243.62 87.27Q244.29 87.11 244.99 87.03Q245.86 86.92 246.40 86.86Q246.95 86.79 247.21 86.64Q247.47 86.48 247.47 86.14L247.47 86.09Q247.47 85.54 247.26 85.16Q247.04 84.78 246.63 84.57Q246.21 84.37 245.59 84.37Q244.94 84.37 244.48 84.56Q244.02 84.76 243.74 85.07Q243.45 85.38 243.31 85.71L241.49 85.24Q241.82 84.36 242.45 83.82Q243.07 83.29 243.88 83.04Q244.69 82.79 245.55 82.79Q246.15 82.79 246.82 82.93Q247.48 83.07 248.07 83.44Q248.66 83.81 249.03 84.48Q249.40 85.15 249.40 86.22L249.40 92.74L247.53 92.74L247.53 91.40L247.43 91.40Q247.24 91.78 246.86 92.14Q246.48 92.50 245.91 92.73Q245.33 92.96 244.53 92.96M244.96 91.41Q245.75 91.41 246.31 91.10Q246.88 90.79 247.18 90.28Q247.47 89.77 247.47 89.20L247.47 87.94Q247.37 88.05 247.07 88.13Q246.78 88.22 246.40 88.28Q246.02 88.35 245.67 88.39Q245.32 88.44 245.09 88.46Q244.55 88.53 244.10 88.70Q243.64 88.87 243.37 89.17Q243.11 89.48 243.11 89.99Q243.11 90.46 243.35 90.77Q243.59 91.09 244 91.25Q244.42 91.41 244.96 91.41M254.24 82.92L256.20 82.92L256.20 84.49L254.24 84.49L254.24 90.09Q254.24 90.68 254.49 90.95Q254.74 91.23 255.31 91.23Q255.46 91.23 255.71 91.20Q255.96 91.16 256.13 91.13L256.47 92.67Q256.17 92.78 255.82 92.83Q255.46 92.87 255.12 92.87Q253.79 92.87 253.05 92.18Q252.31 91.49 252.31 90.25L252.31 84.49L250.88 84.49L250.88 82.92L252.31 82.92L252.31 80.58L254.24 80.58L254.24 82.92M262.36 92.94Q260.91 92.94 259.86 92.32Q258.80 91.70 258.24 90.56Q257.67 89.43 257.67 87.90Q257.67 86.39 258.23 85.24Q258.79 84.08 259.81 83.44Q260.83 82.79 262.20 82.79Q263.04 82.79 263.82 83.07Q264.60 83.35 265.23 83.94Q265.85 84.52 266.22 85.46Q266.58 86.40 266.58 87.73L266.58 88.42L259.61 88.42Q259.65 89.31 259.96 89.93Q260.31 90.63 260.93 90.99Q261.55 91.34 262.38 91.34Q262.93 91.34 263.37 91.19Q263.80 91.04 264.13 90.73Q264.45 90.41 264.61 89.96L266.43 90.39Q266.20 91.14 265.64 91.72Q265.08 92.30 264.25 92.62Q263.42 92.94 262.36 92.94M259.62 86.98L264.67 86.98Q264.60 86.36 264.40 85.85Q264.12 85.17 263.57 84.78Q263.02 84.39 262.20 84.39Q261.38 84.39 260.80 84.79Q260.22 85.18 259.92 85.83Q259.67 86.36 259.62 86.98M270.13 92.87Q269.59 92.87 269.21 92.50Q268.83 92.12 268.83 91.58Q268.83 91.04 269.21 90.66Q269.59 90.29 270.13 90.29Q270.67 90.29 271.05 90.66Q271.43 91.04 271.43 91.58Q271.43 92.12 271.05 92.50Q270.67 92.87 270.13 92.87" fill="#2563EB"/><path d="M283.50 92.96Q282.03 92.96 280.95 92.50Q279.87 92.03 279.26 91.16Q278.65 90.30 278.59 89.10L280.60 89.10Q280.66 89.82 281.06 90.28Q281.46 90.75 282.10 90.98Q282.75 91.20 283.49 91.20Q284.33 91.20 284.97 90.94Q285.62 90.69 286 90.21Q286.38 89.73 286.38 89.09Q286.38 88.52 286.05 88.16Q285.72 87.79 285.16 87.55Q284.60 87.31 283.89 87.13L282.36 86.70Q280.75 86.27 279.85 85.43Q278.95 84.59 278.95 83.24Q278.95 82.11 279.56 81.26Q280.17 80.41 281.22 79.94Q282.27 79.47 283.59 79.47Q284.93 79.47 285.96 79.94Q286.98 80.41 287.57 81.23Q288.15 82.05 288.18 83.09L286.23 83.09Q286.13 82.20 285.40 81.70Q284.66 81.21 283.55 81.21Q282.75 81.21 282.17 81.46Q281.59 81.70 281.26 82.14Q280.94 82.57 280.94 83.13Q280.94 83.75 281.33 84.13Q281.71 84.52 282.26 84.74Q282.81 84.96 283.31 85.10L284.58 85.43Q285.21 85.59 285.87 85.86Q286.53 86.12 287.10 86.55Q287.66 86.98 288.01 87.60Q288.35 88.23 288.35 89.12Q288.35 90.23 287.78 91.10Q287.21 91.97 286.12 92.47Q285.04 92.96 283.50 92.96M294.72 92.94Q293.33 92.94 292.30 92.31Q291.27 91.68 290.70 90.54Q290.13 89.39 290.13 87.88Q290.13 86.35 290.70 85.21Q291.27 84.06 292.30 83.43Q293.33 82.79 294.72 82.79Q295.48 82.79 296.15 82.99Q296.82 83.19 297.36 83.56Q297.90 83.94 298.27 84.48Q298.64 85.02 298.83 85.69L296.99 86.13Q296.90 85.75 296.69 85.44Q296.49 85.13 296.21 84.90Q295.92 84.67 295.55 84.55Q295.17 84.43 294.72 84.43Q293.84 84.43 293.25 84.90Q292.67 85.37 292.38 86.15Q292.10 86.93 292.10 87.88Q292.10 88.82 292.38 89.60Q292.67 90.38 293.25 90.84Q293.84 91.31 294.72 91.31Q295.18 91.31 295.56 91.18Q295.94 91.05 296.24 90.82Q296.54 90.59 296.74 90.26Q296.94 89.93 297.03 89.53L298.86 89.97Q298.68 90.67 298.30 91.22Q297.92 91.77 297.38 92.15Q296.84 92.54 296.17 92.74Q295.49 92.94 294.72 92.94M303.72 92.96Q302.79 92.96 302.04 92.61Q301.28 92.27 300.84 91.60Q300.40 90.93 300.40 89.96Q300.40 89.13 300.72 88.59Q301.04 88.06 301.59 87.74Q302.14 87.42 302.82 87.27Q303.49 87.11 304.18 87.03Q305.05 86.92 305.60 86.86Q306.14 86.79 306.40 86.64Q306.66 86.48 306.66 86.14L306.66 86.09Q306.66 85.54 306.45 85.16Q306.24 84.78 305.82 84.57Q305.40 84.37 304.78 84.37Q304.14 84.37 303.68 84.56Q303.22 84.76 302.93 85.07Q302.64 85.38 302.50 85.71L300.68 85.24Q301.02 84.36 301.64 83.82Q302.27 83.29 303.07 83.04Q303.88 82.79 304.74 82.79Q305.34 82.79 306.01 82.93Q306.68 83.07 307.27 83.44Q307.86 83.81 308.22 84.48Q308.59 85.15 308.59 86.22L308.59 92.74L306.72 92.74L306.72 91.40L306.63 91.40Q306.43 91.78 306.05 92.14Q305.68 92.50 305.10 92.73Q304.52 92.96 303.72 92.96M304.16 91.41Q304.95 91.41 305.51 91.10Q306.07 90.79 306.37 90.28Q306.67 89.77 306.67 89.20L306.67 87.94Q306.56 88.05 306.27 88.13Q305.97 88.22 305.60 88.28Q305.22 88.35 304.87 88.39Q304.52 88.44 304.29 88.46Q303.74 88.53 303.29 88.70Q302.84 88.87 302.57 89.17Q302.30 89.48 302.30 89.99Q302.30 90.46 302.54 90.77Q302.78 91.09 303.20 91.25Q303.61 91.41 304.16 91.41M311.20 79.65L313.13 79.65L313.13 92.74L311.20 92.74L311.20 79.65M319.97 92.94Q318.52 92.94 317.46 92.32Q316.41 91.70 315.84 90.56Q315.27 89.43 315.27 87.90Q315.27 86.39 315.83 85.24Q316.39 84.08 317.41 83.44Q318.43 82.79 319.80 82.79Q320.64 82.79 321.43 83.07Q322.21 83.35 322.83 83.94Q323.46 84.52 323.82 85.46Q324.19 86.40 324.19 87.73L324.19 88.42L317.22 88.42Q317.25 89.31 317.57 89.93Q317.91 90.63 318.53 90.99Q319.16 91.34 319.98 91.34Q320.53 91.34 320.97 91.19Q321.41 91.04 321.73 90.73Q322.05 90.41 322.22 89.96L324.04 90.39Q323.80 91.14 323.24 91.72Q322.68 92.30 321.85 92.62Q321.02 92.94 319.97 92.94M317.22 86.98L322.27 86.98Q322.21 86.36 322.01 85.85Q321.72 85.17 321.18 84.78Q320.63 84.39 319.80 84.39Q318.98 84.39 318.40 84.79Q317.82 85.18 317.52 85.83Q317.27 86.36 317.22 86.98M327.74 92.87Q327.19 92.87 326.81 92.50Q326.44 92.12 326.44 91.58Q326.44 91.04 326.81 90.66Q327.19 90.29 327.74 90.29Q328.27 90.29 328.65 90.66Q329.03 91.04 329.03 91.58Q329.03 92.12 328.65 92.50Q328.27 92.87 327.74 92.87" fill="#111111"/>
</svg>
