<svg xmlns="http://www.w3.org/2000/svg" viewBox="0 -41.29 346.58 41.84" fill="none" role="img" aria-label="PaalStack wordmark">
  <g transform="translate(-4.51,0)"><path d="M10.75 0L4.51 0L4.51-40.74L19.11-40.74Q23.82-40.74 26.96-38.99Q30.11-37.24 31.66-34.26Q33.22-31.28 33.22-27.51Q33.22-23.73 31.65-20.74Q30.08-17.75 26.93-16.01Q23.79-14.27 19.06-14.27L10.75-14.27L10.75 0M10.75-35.41L10.75-19.55L18.46-19.55Q21.46-19.55 23.32-20.59Q25.18-21.63 26.04-23.43Q26.91-25.24 26.91-27.51Q26.91-29.80 26.04-31.60Q25.18-33.39 23.31-34.40Q21.44-35.41 18.40-35.41L10.75-35.41M44.64 0L37.88 0L52.38-40.74L60.03-40.74L74.80 0L68.04 0L64.30-10.75L48.27-10.75L44.64 0M50.05-15.94L62.47-15.94L60.11-22.67Q59.19-25.43 58.09-29.18Q57.22-32.07 56.18-35.85Q55.14-32.02 54.29-29.09Q53.17-25.29 52.32-22.67L50.05-15.94M84.90 0L78.15 0L92.64-40.74L100.30-40.74L115.06 0L108.31 0L104.56-10.75L88.54-10.75L84.90 0M90.32-15.94L102.73-15.94L100.38-22.67Q99.45-25.43 98.35-29.18Q97.48-32.07 96.44-35.85Q95.40-32.02 94.55-29.09Q93.43-25.29 92.58-22.67L90.32-15.94M146.22 0L121.53 0L121.53-40.74L127.76-40.74L127.76-5.36L146.22-5.36" fill="#FFFFFF"/><path d="M168.13 0.55Q163.05 0.55 159.28-0.98Q155.50-2.52 153.40-5.63Q151.29-8.75 151.21-13.45L160.48-13.45Q160.62-11.48 161.56-10.14Q162.50-8.80 164.16-8.13Q165.81-7.46 168.03-7.46Q170.02-7.46 171.47-8.01Q172.92-8.56 173.70-9.54Q174.48-10.53 174.48-11.84Q174.48-13.02 173.75-13.84Q173.03-14.66 171.58-15.29Q170.13-15.91 167.89-16.41L163.57-17.42Q158.29-18.62 155.28-21.36Q152.28-24.09 152.28-28.68Q152.28-32.46 154.33-35.30Q156.38-38.14 159.95-39.72Q163.51-41.29 168.13-41.29Q172.87-41.29 176.34-39.69Q179.81-38.09 181.72-35.23Q183.64-32.37 183.69-28.60L174.42-28.60Q174.23-30.82 172.62-32.05Q171.01-33.28 168.11-33.28Q166.19-33.28 164.88-32.77Q163.57-32.27 162.91-31.38Q162.26-30.49 162.26-29.34Q162.26-28.08 162.99-27.22Q163.73-26.36 165.10-25.79Q166.47-25.21 168.27-24.80L171.80-23.98Q174.75-23.35 177.06-22.27Q179.37-21.19 180.97-19.69Q182.57-18.18 183.41-16.21Q184.24-14.25 184.24-11.81Q184.24-7.96 182.31-5.18Q180.38-2.41 176.79-0.93Q173.19 0.55 168.13 0.55M200.91-32.87L188.57-32.87L188.57-40.74L222.86-40.74L222.86-32.87L210.53-32.87L210.53 0L200.91 0L200.91-32.87M237.23 0L226.51 0L240.10-40.74L253.04-40.74L267.04 0L256.21 0L253.45-8.67L239.88-8.67L237.23 0M242.15-16.05L251.09-16.05L250.55-17.80Q249.18-22.26 247.92-27.29Q247.18-30.11 246.47-33.09Q245.79-30.11 245.13-27.26Q243.99-22.23 242.70-17.80L242.15-16.05M290.40 0.55Q284.90 0.55 280.54-1.89Q276.18-4.32 273.65-9Q271.12-13.67 271.12-20.34Q271.12-27.07 273.68-31.75Q276.24-36.42 280.61-38.86Q284.99-41.29 290.40-41.29Q294.04-41.29 297.13-40.29Q300.22-39.29 302.60-37.38Q304.97-35.46 306.46-32.69Q307.96-29.91 308.39-26.36L298.63-26.36Q298.38-27.86 297.73-29.05Q297.07-30.24 296.05-31.09Q295.02-31.94 293.65-32.37Q292.29-32.81 290.65-32.81Q287.67-32.81 285.49-31.34Q283.32-29.86 282.16-27.08Q280.99-24.31 280.99-20.34Q280.99-16.27 282.18-13.49Q283.37-10.72 285.52-9.32Q287.67-7.93 290.59-7.93Q292.23-7.93 293.60-8.37Q294.97-8.80 296.01-9.65Q297.05-10.50 297.73-11.69Q298.41-12.88 298.66-14.38L308.42-14.38Q308.15-11.65 306.86-9.01Q305.58-6.37 303.29-4.20Q301.01-2.02 297.78-0.74Q294.56 0.55 290.40 0.55M323.91 0L314.26 0L314.26-40.74L323.91-40.74L323.91-30.73L323.75-20.89Q323.77-20.97 323.83-21.05Q324.98-23.05 326.41-25.07Q327.85-27.10 329.84-29.61L338.92-40.74L350.52-40.74L335.75-23.13L351.09 0L339.74 0L329.11-16.82L323.91-10.94" fill="#2563EB"/></g>
</svg>
