<svg xmlns="http://www.w3.org/2000/svg" viewBox="66 54 200 200" fill="none" role="img" aria-label="PaalStack">
  <path d="M 86.56 141.06 L 161.44 174.94 Q 166 177 170.56 174.94 L 245.44 141.06 Q 250 139 250 144 L 250 158 Q 250 163 245.44 165.06 L 170.56 198.94 Q 166 201 161.44 198.94 L 86.56 165.06 Q 82 163 82 158 L 82 144 Q 82 139 86.56 141.06 Z" fill="#FFFFFF"/>
  <path d="M 86.56 179.06 L 161.44 212.94 Q 166 215 170.56 212.94 L 245.44 179.06 Q 250 177 250 182 L 250 196 Q 250 201 245.44 203.06 L 170.56 236.94 Q 166 239 161.44 236.94 L 86.56 203.06 Q 82 201 82 196 L 82 182 Q 82 177 86.56 179.06 Z" fill="#FFFFFF"/>
  <path d="M 86.56 104.94 L 161.44 71.06 Q 166 69 170.56 71.06 L 245.44 104.94 Q 250 107 250 112 L 250 126 Q 250 131 245.44 128.94 L 170.56 95.06 Q 166 93 161.44 95.06 L 86.56 128.94 Q 82 131 82 126 L 82 112 Q 82 107 86.56 104.94 Z" fill="#2563EB"/>
</svg>
