<svg xmlns="http://www.w3.org/2000/svg" viewBox="0 0 400 400">
  <path fill="#1E5BFF" d="M 165 76 L 164 77 L 163 77 L 162 77 L 161 78 L 161 79 L 160 80 L 159 79 L 158 80 L 157 80 L 157 81 L 156 82 L 155 81 L 155 82 L 154 83 L 153 82 L 152 83 L 151 83 L 150 84 L 150 85 L 149 86 L 148 85 L 148 86 L 147 87 L 146 86 L 146 87 L 145 88 L 144 87 L 144 88 L 143 89 L 142 88 L 142 89 L 141 90 L 140 89 L 140 90 L 139 91 L 138 90 L 138 91 L 137 92 L 136 91 L 135 92 L 134 92 L 133 93 L 132 93 L 132 94 L 131 95 L 130 94 L 131 95 L 130 96 L 129 96 L 128 95 L 127 96 L 127 97 L 126 98 L 125 97 L 125 98 L 124 99 L 123 98 L 123 99 L 122 100 L 121 99 L 121 100 L 120 101 L 119 100 L 118 101 L 117 101 L 117 102 L 116 103 L 115 102 L 115 103 L 114 104 L 113 103 L 112 104 L 112 105 L 111 106 L 110 105 L 110 106 L 109 107 L 108 106 L 107 107 L 106 107 L 106 108 L 105 109 L 104 108 L 104 109 L 103 110 L 102 109 L 102 110 L 101 111 L 100 110 L 100 111 L 99 112 L 98 111 L 98 112 L 97 113 L 96 112 L 95 113 L 94 114 L 93 114 L 92 115 L 91 115 L 91 116 L 90 117 L 89 116 L 89 117 L 88 118 L 87 117 L 86 118 L 85 118 L 84 119 L 85 119 L 86 120 L 86 121 L 87 121 L 88 122 L 89 121 L 90 122 L 90 123 L 91 122 L 92 123 L 92 124 L 93 123 L 94 124 L 94 125 L 95 124 L 96 124 L 97 125 L 96 126 L 97 125 L 98 126 L 98 127 L 99 126 L 100 127 L 100 128 L 101 127 L 102 128 L 102 129 L 103 128 L 104 129 L 104 130 L 105 129 L 106 130 L 106 131 L 107 130 L 108 131 L 108 132 L 109 131 L 110 132 L 110 133 L 111 132 L 112 133 L 112 134 L 113 135 L 114 134 L 115 134 L 116 135 L 115 136 L 116 135 L 117 135 L 118 136 L 117 137 L 118 136 L 119 136 L 120 137 L 119 136 L 120 135 L 121 135 L 122 136 L 122 135 L 123 134 L 124 135 L 125 134 L 126 134 L 127 133 L 128 132 L 129 132 L 130 131 L 131 131 L 131 130 L 132 129 L 133 130 L 133 129 L 134 128 L 135 129 L 135 128 L 136 127 L 137 128 L 137 127 L 138 126 L 139 127 L 139 126 L 140 125 L 141 126 L 142 125 L 143 125 L 144 124 L 145 124 L 146 123 L 147 123 L 147 122 L 148 121 L 149 122 L 149 121 L 150 120 L 151 121 L 152 120 L 153 120 L 154 119 L 155 119 L 156 118 L 157 117 L 158 117 L 158 116 L 159 115 L 160 116 L 160 115 L 161 114 L 162 115 L 162 114 L 163 113 L 164 114 L 164 113 L 165 112 L 166 113 L 167 113 L 168 112 L 169 113 L 170 113 L 171 114 L 172 114 L 173 115 L 172 116 L 173 115 L 174 115 L 175 116 L 174 117 L 175 116 L 176 116 L 177 117 L 176 118 L 177 117 L 178 118 L 178 119 L 179 118 L 180 119 L 180 120 L 181 119 L 182 120 L 182 121 L 183 121 L 184 122 L 185 122 L 186 123 L 187 123 L 188 124 L 189 125 L 190 125 L 191 126 L 192 125 L 193 126 L 193 127 L 194 126 L 195 127 L 195 128 L 196 127 L 197 128 L 197 129 L 198 128 L 199 129 L 199 130 L 200 129 L 201 130 L 202 130 L 203 131 L 203 132 L 204 133 L 205 133 L 206 134 L 207 134 L 208 135 L 209 134 L 210 135 L 210 136 L 211 135 L 212 136 L 212 137 L 213 136 L 214 136 L 215 137 L 214 136 L 215 135 L 216 135 L 217 136 L 217 135 L 218 134 L 219 135 L 218 134 L 219 133 L 220 133 L 221 134 L 221 133 L 222 132 L 223 133 L 224 132 L 225 132 L 226 131 L 227 131 L 228 130 L 229 130 L 229 129 L 230 128 L 231 129 L 230 128 L 231 127 L 232 127 L 233 128 L 232 127 L 233 126 L 234 126 L 235 127 L 234 126 L 235 125 L 236 125 L 237 126 L 236 125 L 237 124 L 238 124 L 239 125 L 238 124 L 239 123 L 240 123 L 241 124 L 242 123 L 243 122 L 244 122 L 245 122 L 246 121 L 247 121 L 248 120 L 248 119 L 247 118 L 246 117 L 245 118 L 244 118 L 243 117 L 244 116 L 243 117 L 242 116 L 242 115 L 241 116 L 240 116 L 239 115 L 240 114 L 239 115 L 238 114 L 238 113 L 237 114 L 236 113 L 236 112 L 235 112 L 234 111 L 233 111 L 232 110 L 231 110 L 230 109 L 229 109 L 228 108 L 227 107 L 226 107 L 225 106 L 224 106 L 223 105 L 222 106 L 221 105 L 221 104 L 220 104 L 219 103 L 218 103 L 217 102 L 216 102 L 215 101 L 214 101 L 213 100 L 212 100 L 211 99 L 210 98 L 209 99 L 208 98 L 208 97 L 207 98 L 206 97 L 206 96 L 205 96 L 204 95 L 203 95 L 202 94 L 201 94 L 200 93 L 199 93 L 198 92 L 197 92 L 196 91 L 195 91 L 194 90 L 193 89 L 192 89 L 191 88 L 190 88 L 189 87 L 188 87 L 187 86 L 186 86 L 185 85 L 184 86 L 183 85 L 183 84 L 182 84 L 181 83 L 180 83 L 179 82 L 178 82 L 177 81 L 176 80 L 175 80 L 174 79 L 173 79 L 172 78 L 171 78 L 170 77 L 169 77 L 168 76 L 167 76 L 166 76 Z"/>
  <path fill="#000000" d="M 102 180 L 101 181 L 100 181 L 99 182 L 98 182 L 97 183 L 96 183 L 95 184 L 94 184 L 93 185 L 92 186 L 91 186 L 90 187 L 89 187 L 88 188 L 87 188 L 86 189 L 85 189 L 85 190 L 85 191 L 85 192 L 86 192 L 87 193 L 88 193 L 89 194 L 90 194 L 91 195 L 92 195 L 93 196 L 94 196 L 95 197 L 96 197 L 97 198 L 98 198 L 99 199 L 100 199 L 101 200 L 102 200 L 103 201 L 104 201 L 105 202 L 106 202 L 107 203 L 108 203 L 109 204 L 110 204 L 111 205 L 112 205 L 113 206 L 114 206 L 115 207 L 116 207 L 117 208 L 118 208 L 119 209 L 120 209 L 121 210 L 122 210 L 123 211 L 124 211 L 125 212 L 126 212 L 127 213 L 128 213 L 129 214 L 130 214 L 131 215 L 132 215 L 133 216 L 134 216 L 135 217 L 136 218 L 137 218 L 138 218 L 139 219 L 140 219 L 141 220 L 142 220 L 143 221 L 144 221 L 145 222 L 146 222 L 147 223 L 148 223 L 149 224 L 150 225 L 151 225 L 152 226 L 153 226 L 154 227 L 155 227 L 156 228 L 157 228 L 158 228 L 159 229 L 160 230 L 161 230 L 162 230 L 163 231 L 164 232 L 165 232 L 166 232 L 167 232 L 168 232 L 169 231 L 170 231 L 171 230 L 172 230 L 173 229 L 174 229 L 175 228 L 176 228 L 177 227 L 178 227 L 179 226 L 180 226 L 181 225 L 182 225 L 183 224 L 184 224 L 185 223 L 186 223 L 187 222 L 188 222 L 189 221 L 190 221 L 191 220 L 192 220 L 193 219 L 194 219 L 195 218 L 196 218 L 197 217 L 198 217 L 199 216 L 200 216 L 201 215 L 202 215 L 203 214 L 204 214 L 205 213 L 206 213 L 207 212 L 208 212 L 209 211 L 210 211 L 211 210 L 212 210 L 213 209 L 214 209 L 215 208 L 216 208 L 217 207 L 218 207 L 219 206 L 220 206 L 221 205 L 222 205 L 223 204 L 224 204 L 225 203 L 226 203 L 227 202 L 228 202 L 229 201 L 230 201 L 231 200 L 232 200 L 233 199 L 234 199 L 235 198 L 236 198 L 237 197 L 238 196 L 239 196 L 240 195 L 241 195 L 242 195 L 243 194 L 244 194 L 245 193 L 246 192 L 247 192 L 248 191 L 248 190 L 247 189 L 246 189 L 245 188 L 244 187 L 243 187 L 242 186 L 241 186 L 240 185 L 239 185 L 238 184 L 237 184 L 236 183 L 235 183 L 234 182 L 233 182 L 232 181 L 231 181 L 230 180 L 229 181 L 228 181 L 227 182 L 226 182 L 225 183 L 224 183 L 223 184 L 222 184 L 221 185 L 220 186 L 219 186 L 218 187 L 217 187 L 216 188 L 215 188 L 214 189 L 213 189 L 212 190 L 211 190 L 210 191 L 209 191 L 208 192 L 207 192 L 206 193 L 205 193 L 204 194 L 203 194 L 202 195 L 201 195 L 200 196 L 199 196 L 198 197 L 197 197 L 196 198 L 195 198 L 194 199 L 193 200 L 192 200 L 191 201 L 190 201 L 189 202 L 188 202 L 187 203 L 186 203 L 185 204 L 184 204 L 183 205 L 182 205 L 181 206 L 180 206 L 179 207 L 178 207 L 177 208 L 176 208 L 175 209 L 174 209 L 173 210 L 172 210 L 171 211 L 170 211 L 169 212 L 168 212 L 167 213 L 166 213 L 165 212 L 164 212 L 163 211 L 162 211 L 161 210 L 160 210 L 159 209 L 158 209 L 157 208 L 156 208 L 155 207 L 154 207 L 153 206 L 152 206 L 151 205 L 150 205 L 149 204 L 148 204 L 147 203 L 146 202 L 145 202 L 144 201 L 143 201 L 142 200 L 141 200 L 140 199 L 139 199 L 138 198 L 137 198 L 136 197 L 135 197 L 134 196 L 133 196 L 132 195 L 131 195 L 130 194 L 129 194 L 128 193 L 127 193 L 126 192 L 125 192 L 124 191 L 123 191 L 122 190 L 121 190 L 120 189 L 119 189 L 118 188 L 117 188 L 116 187 L 115 187 L 114 186 L 113 186 L 112 185 L 111 184 L 110 184 L 109 183 L 108 183 L 107 182 L 106 182 L 105 181 L 104 181 L 103 180 Z"/>
  <path fill="#000000" d="M 100 144 L 99 145 L 98 146 L 97 146 L 96 147 L 95 147 L 94 148 L 93 148 L 92 149 L 91 149 L 90 150 L 89 150 L 88 151 L 87 151 L 86 152 L 85 152 L 85 153 L 85 154 L 85 155 L 86 155 L 87 156 L 88 156 L 89 157 L 90 157 L 91 158 L 92 158 L 93 159 L 94 159 L 95 160 L 96 161 L 97 161 L 98 162 L 99 162 L 100 163 L 101 163 L 102 164 L 103 164 L 104 164 L 105 165 L 106 165 L 107 166 L 108 167 L 109 167 L 110 168 L 111 168 L 112 169 L 113 169 L 114 170 L 115 170 L 116 171 L 117 171 L 118 172 L 119 172 L 120 173 L 121 173 L 122 174 L 123 174 L 124 175 L 125 175 L 126 176 L 127 176 L 128 177 L 129 177 L 130 178 L 131 178 L 132 179 L 133 179 L 134 180 L 135 180 L 136 181 L 137 181 L 138 182 L 139 182 L 140 183 L 141 183 L 142 184 L 143 184 L 144 185 L 145 185 L 146 186 L 147 186 L 148 187 L 149 187 L 150 188 L 151 188 L 152 189 L 153 189 L 154 190 L 155 190 L 156 191 L 157 191 L 158 192 L 159 192 L 160 193 L 161 194 L 162 194 L 163 194 L 164 195 L 165 195 L 166 196 L 167 196 L 168 195 L 169 195 L 170 194 L 171 194 L 172 193 L 173 193 L 174 192 L 175 192 L 176 191 L 177 191 L 178 190 L 179 190 L 180 189 L 181 189 L 182 188 L 183 188 L 184 187 L 185 187 L 186 187 L 187 186 L 188 186 L 189 185 L 190 185 L 191 184 L 192 183 L 193 183 L 194 182 L 195 182 L 196 181 L 197 181 L 198 180 L 199 180 L 200 179 L 201 179 L 202 178 L 203 178 L 204 177 L 205 177 L 206 176 L 207 176 L 208 175 L 209 175 L 210 174 L 211 174 L 212 173 L 213 173 L 214 172 L 215 172 L 216 171 L 217 171 L 218 170 L 219 170 L 220 169 L 221 169 L 222 168 L 223 168 L 224 167 L 225 167 L 226 166 L 227 166 L 228 165 L 229 164 L 230 164 L 231 163 L 232 163 L 233 162 L 234 162 L 235 161 L 236 161 L 237 160 L 238 160 L 239 159 L 240 159 L 241 158 L 242 158 L 243 157 L 244 157 L 245 156 L 246 156 L 247 155 L 248 155 L 248 154 L 248 153 L 248 152 L 247 152 L 246 151 L 245 151 L 244 150 L 243 150 L 242 149 L 241 149 L 240 148 L 239 148 L 238 147 L 237 146 L 236 146 L 235 145 L 234 145 L 233 144 L 232 144 L 231 144 L 230 144 L 229 144 L 228 145 L 227 145 L 226 146 L 225 146 L 224 147 L 223 147 L 222 148 L 221 148 L 220 149 L 219 149 L 218 150 L 217 150 L 216 151 L 215 151 L 214 152 L 213 153 L 212 153 L 211 154 L 210 154 L 209 155 L 208 155 L 207 156 L 206 156 L 205 157 L 204 157 L 203 158 L 202 158 L 201 159 L 200 159 L 199 160 L 198 160 L 197 161 L 196 161 L 195 162 L 194 162 L 193 163 L 192 163 L 191 164 L 190 164 L 189 165 L 188 166 L 187 166 L 186 167 L 185 167 L 184 168 L 183 168 L 182 169 L 181 169 L 180 170 L 179 170 L 178 171 L 177 171 L 176 172 L 175 172 L 174 173 L 173 173 L 172 174 L 171 174 L 170 175 L 169 175 L 168 176 L 167 176 L 166 176 L 165 176 L 164 175 L 163 175 L 162 174 L 161 174 L 160 173 L 159 173 L 158 172 L 157 172 L 156 171 L 155 171 L 154 170 L 153 170 L 152 169 L 151 169 L 150 168 L 149 168 L 148 167 L 147 167 L 146 166 L 145 166 L 144 165 L 143 165 L 142 164 L 141 164 L 140 163 L 139 162 L 138 162 L 137 161 L 136 161 L 135 160 L 134 160 L 133 159 L 132 159 L 131 158 L 130 158 L 129 157 L 128 157 L 127 156 L 126 156 L 125 155 L 124 155 L 123 154 L 122 154 L 121 153 L 120 153 L 119 152 L 118 151 L 117 151 L 116 150 L 115 150 L 114 149 L 113 149 L 112 148 L 111 148 L 110 147 L 109 147 L 108 146 L 107 146 L 106 145 L 105 145 L 104 144 L 103 144 L 102 144 L 101 144 Z"/>
</svg>
